<svg width="86" height="70" viewBox="0 0 86 70" fill="none" xmlns="http://www.w3.org/2000/svg">
<path id="Vector" fill-rule="evenodd" clip-rule="evenodd" d="M78.1871 1.76612C75.242 3.32398 74.1709 3.41297 71.1928 2.34927C66.3728 0.62704 64.2015 0.687762 63.5112 2.56389C62.5566 5.15404 65.2273 10.3773 68.3713 12.0712C70.7024 13.3276 71.1596 14.1138 70.6271 15.9481C69.4032 20.1641 66.0884 24.9497 61.4423 29.2119C55.8647 34.3273 52.6615 34.6037 42.3655 30.8556C33.4018 27.5922 22.7129 25.7946 17.4779 26.6699C12.0531 27.5776 5.55014 31.6031 2.26952 36.084C0.148417 38.983 -0.288663 40.4886 0.158467 43.3603C0.972342 48.5846 6.05053 55.685 11.6502 59.4299C17.4729 63.3225 27.8544 66.3115 32.1438 65.3305C34.6276 64.7621 35.7339 65.1588 38.0178 67.4391C41.8118 71.2259 45.4391 70.7548 45.9124 66.412C46.3595 62.308 47.8184 61.5018 51.3492 63.4042C52.9348 64.2585 55.9009 64.8133 57.9396 64.6364L61.6473 64.315V59.029C61.6473 54.3062 62.1005 53.2058 65.9066 48.6872C72.6527 40.6781 78.2262 26.3893 78.2262 17.1029C78.2262 14.6834 78.9326 13.2962 80.8226 12.0063C83.6712 10.0621 86.6996 3.66633 85.8566 1.37561C85.1341 -0.585327 82.371 -0.445035 78.1871 1.76612ZM64.6496 3.08946C63.6147 4.83473 66.1859 9.30624 69.14 10.8976C72.7321 12.8324 72.9009 14.2792 70.1819 19.8323C67.1585 26.0082 62.1437 31.4565 57.5247 33.585C53.0192 35.6621 54.2732 35.8548 36.5498 30.3667C27.353 27.519 16.2481 27.4436 11.1167 30.1929C7.5155 32.1234 1.05976 38.2983 1.93593 38.9747C2.17206 39.1568 6.52981 41.2905 11.62 43.7163C20.853 48.1156 28.2241 50.1812 34.6909 50.1812C37.8409 50.1812 38.0188 50.0116 36.9838 47.9973C36.3669 46.7964 36.0916 45.5746 36.3719 45.2825C36.6523 44.9904 37.6189 46.2373 38.5202 48.0528C40.7558 52.5578 46.9915 59.6037 48.7418 59.6037C51.1242 59.6037 58.1305 55.4641 58.1305 54.057C58.1305 51.9066 55.1021 48.0475 51.7331 45.9076C50.0018 44.8072 49.1568 43.9058 49.8551 43.9037C50.5535 43.9016 51.9702 44.4502 53.0051 45.1234C56.0386 47.0979 60.3411 44.5015 68.0518 36.0432C73.8826 29.6464 75.1767 27.5556 76.1102 23.0234C76.7211 20.0532 77.2215 16.4852 77.2215 15.0938C77.2215 13.6144 78.0775 12.0869 79.2853 11.4137C81.2235 10.3333 85.2477 4.53216 85.2557 2.80679C85.2638 1.20077 79.4149 2.09277 77.0074 4.06626C75.2963 5.46917 74.189 5.77174 73.4786 5.03155C72.0468 3.53965 65.2665 2.0488 64.6496 3.08946ZM68.6155 37.7696C66.4411 40.1357 62.6712 43.4116 60.2376 45.0512C57.0544 47.1943 56.2405 48.2004 57.3338 48.638C60.0045 49.7059 68.4768 43.6294 71.0501 38.7998C72.3523 36.3542 73.2274 34.1545 72.9943 33.9106C72.7602 33.6677 70.7898 35.4046 68.6155 37.7696ZM23.9679 39.7117C23.9679 40.2875 24.6461 40.7587 25.475 40.7587C26.304 40.7587 26.9822 40.2875 26.9822 39.7117C26.9822 39.1359 26.304 38.6648 25.475 38.6648C24.6461 38.6648 23.9679 39.1359 23.9679 39.7117ZM1.29387 43.6378C3.01105 51.203 12.5575 60.3732 21.2981 62.8556C25.3876 64.0166 40.0062 63.5643 44.8171 62.129C48.0887 61.1511 47.6356 59.23 44.3148 60.0005C26.5029 64.1297 13.2357 59.5284 5.73502 46.6195C2.06957 40.3095 0.262961 39.0972 1.29387 43.6378ZM4.87694 42.728C4.87694 43.8943 10.1551 51.3307 12.5535 53.544C16.7023 57.3716 24.2602 59.9388 31.5037 59.9806C40.2825 60.0298 44.8443 58.9515 43.1803 57.2177C42.4358 56.442 39.3089 56.1122 34.6357 56.3153C24.2713 56.7655 19.4755 55.0223 13.4045 48.5982C8.55646 43.4671 4.87694 40.9346 4.87694 42.728ZM13.504 47.4068C14.2626 49.4462 20.647 53.4697 24.6702 54.4423C29.2088 55.5405 36.7889 55.574 39.3883 54.5082C42.6679 53.1629 39.111 51.56 31.4384 50.9235C27.5338 50.6 21.8005 49.4054 18.6968 48.2695C15.2172 46.9953 13.2277 46.6645 13.504 47.4068ZM62.4009 48.2705C59.4368 50.1802 57.9215 53.322 59.9653 53.322C60.8354 53.322 64.3592 49.5415 65.576 47.3021C66.4592 45.6772 66.3969 45.6961 62.4009 48.2705ZM54.232 58.8196C51.0609 60.858 50.9564 61.0956 52.6655 62.397C54.8519 64.0637 59.7563 64.2396 60.6777 62.6849C61.6513 61.0433 60.2938 56.4493 58.865 56.5498C58.1848 56.5969 56.0999 57.6187 54.232 58.8196ZM41.1457 63.958L37.7254 64.9819L39.8063 67.1491C42.3996 69.8513 45.0683 68.9614 45.0683 65.3944C45.0683 63.937 44.9558 62.7875 44.8171 62.8388C44.6785 62.8911 43.0266 63.3947 41.1457 63.958Z" fill="black"/>
</svg>
