<svg width="55" height="70" viewBox="0 0 55 70" fill="none" xmlns="http://www.w3.org/2000/svg">
<path id="image 36 (Traced)" fill-rule="evenodd" clip-rule="evenodd" d="M40.2715 4.36688C33.9232 10.2478 26.9105 28.1211 24.9751 43.3548C24.1343 49.9707 24.3352 52.3633 26.3357 59.5899L28.6828 68.0653L26.1135 68.1547C21.334 68.3196 20.5832 67.4201 18.4974 59.0318C16.6127 51.4515 16.4611 51.185 14.2198 51.4995C12.9415 51.6786 10.3846 52.9985 8.53824 54.4335C6.69254 55.8672 4.75828 57.1631 4.24026 57.312C2.71888 57.7494 2.08061 53.7449 2.45216 46.0902C2.6427 42.1565 2.38145 39.2245 1.87214 39.5738C0.49239 40.522 0.39462 55.4084 1.75296 57.7482C3.20869 60.2567 4.12324 60.0031 9.72575 55.5384C15.2497 51.1368 16.8246 51.5591 16.878 57.4559C16.9752 68.2107 20.3168 71.4193 28.8608 68.9631C33.4268 67.6504 33.8174 67.2645 37.3903 60.5281C39.4498 56.6459 43.0515 46.6944 45.3944 38.4159C47.7379 30.136 51.0047 19.9208 52.6552 15.7161C55.9007 7.4465 55.6941 3.48851 51.9181 1.63881C48.2323 -0.168191 44.1282 0.793177 40.2715 4.36688ZM49.9842 2.57767C52.2333 3.06107 53.9668 7.00983 53.1521 9.79327C52.8039 10.9817 51.4364 10.8286 46.9879 9.10459C43.8428 7.88613 41.0391 6.58098 40.7558 6.20356C39.6297 4.70433 46.7883 1.89197 49.9842 2.57767ZM47.4875 11.3239C51.1835 13.257 51.3428 13.4745 50.6893 15.7038C50.3397 16.8948 49.0628 16.7707 44.8801 15.1389C41.9315 13.9888 38.8985 13.019 38.1407 12.9851C37.0097 12.9346 36.9109 12.5801 37.5931 11.0116C38.6356 8.61524 42.5449 8.73893 47.4875 11.3239ZM39.3831 15.251C41.2647 15.94 41.1046 17.0192 37.3932 28.641C35.1736 35.5929 33.1829 42.8203 32.9697 44.7024C32.5966 47.9978 31.2052 49.6943 30.6007 47.5914C30.4399 47.0321 30.0244 46.8862 29.6773 47.268C29.3303 47.6497 28.3787 47.7745 27.5616 47.5453C24.1784 46.5951 32.3118 15.9458 36.2474 14.8144C36.8471 14.642 38.2584 14.8387 39.3831 15.251ZM46.5051 18.0481C47.7286 18.8076 48.6821 19.8331 48.6222 20.3269C48.5623 20.8207 46.7541 27.2204 44.6051 34.5484C40.9116 47.1411 40.5241 47.9215 37.5371 48.7802C34.4886 49.6566 34.3849 49.5855 34.613 46.7595C35.1036 40.6917 42.212 17.3241 43.7116 16.8472C44.0234 16.7482 45.2807 17.2889 46.5051 18.0481ZM31.2236 50.7066C32.1553 52.2752 32.8331 52.3457 35.3929 51.1374C39.4912 49.2038 40.2648 50.2477 38.2496 54.9901C37.3253 57.1641 36.5217 59.1067 36.4634 59.3056C36.4044 59.5057 34.4317 59.6472 32.079 59.6213C27.5883 59.5711 26.4605 58.1202 26.3539 52.2553C26.2991 49.238 29.7083 48.1539 31.2236 50.7066ZM32.8561 61.1626C35.1825 61.3647 35.342 62.6434 33.2885 64.6394C31.9395 65.9512 31.295 66.0876 30.3603 65.2575C27.5116 62.7281 28.6857 60.8007 32.8561 61.1626Z" fill="black"/>
</svg>
