<?xml version="1.0" standalone="no"?>
<!DOCTYPE svg PUBLIC "-//W3C//DTD SVG 20010904//EN"
 "http://www.w3.org/TR/2001/REC-SVG-20010904/DTD/svg10.dtd">
<svg version="1.0" xmlns="http://www.w3.org/2000/svg"
 width="677.000000pt" height="166.000000pt" viewBox="0 0 677.000000 166.000000"
 preserveAspectRatio="xMidYMid meet">

<g transform="translate(0.000000,166.000000) scale(0.100000,-0.100000)"
fill="#000000" stroke="none">
<path d="M1146 481 c-4 -6 -18 -11 -32 -11 -13 0 -24 -4 -24 -10 0 -5 -6 -10
-12 -10 -7 0 -23 -18 -35 -40 -19 -32 -23 -54 -23 -129 l0 -91 140 0 c126 0
140 2 141 18 9 146 -17 242 -65 242 -9 0 -16 5 -16 10 0 6 -10 10 -23 10 -13
0 -28 5 -34 11 -8 8 -13 8 -17 0z"/>
</g>
</svg>
