<svg width="54" height="64" viewBox="0 0 54 64" fill="none" xmlns="http://www.w3.org/2000/svg">
<path id="lightbulb" fill-rule="evenodd" clip-rule="evenodd" d="M31.3859 2.35221C30.0937 4.79087 30.1632 7.80335 31.5199 8.13577C31.9994 8.25327 32.821 6.59915 33.3451 4.45986C34.3977 0.163765 33.2178 -1.10562 31.3859 2.35221ZM12.1758 2.11794C11.8123 3.60183 15.7134 9.44257 16.8294 9.08413C17.5016 8.86746 17.1428 7.27666 15.9612 5.24099C13.9865 1.84004 12.537 0.643774 12.1758 2.11794ZM44.1959 12.6074C42.4173 13.5065 41.3036 14.587 41.7208 15.0098C42.138 15.4326 43.9802 15.0893 45.8142 14.2471C47.7452 13.3596 48.7869 12.349 48.2893 11.8447C47.8164 11.366 45.9742 11.7093 44.1959 12.6074ZM26.3274 9.86C18.2811 9.87793 13.4363 13.116 11.1209 20.0219C9.05391 26.1887 9.28583 31.7963 11.8385 37.4231C13.5782 41.2592 13.5676 42.0545 11.6969 47.4963C9.82665 52.9362 9.81885 53.4878 11.5956 54.4468C12.6572 55.0203 13.5894 56.498 13.6681 57.7315C13.8546 60.6851 14.9749 61.7708 18.8295 62.7348C21.3828 63.3728 22.3893 63.0556 23.856 61.1472C24.8658 59.8361 26.3612 58.5419 27.1787 58.2732C28.2021 57.9374 29.0769 55.8377 29.9821 51.5477C31.1898 45.8156 31.6139 45.0908 35.2171 42.5844C39.8752 39.3439 41.4471 36.7696 43.2735 29.3873C44.7955 23.2302 43.6852 19.0865 39.4371 15.0718C36.4256 12.226 30.4514 9.85103 26.3274 9.86ZM22.3205 12.5643C12.6279 14.2095 9.24513 25.7295 14.8066 38.1555C16.0619 40.9597 17.1578 43.4639 17.2436 43.7221C17.3287 43.979 17.6986 44.0077 18.0655 43.7863C18.4324 43.5649 18.7679 40.294 18.8109 36.5185C18.9534 24.0201 20.3436 21.892 27.0126 23.9662C35.1884 26.5085 34.6981 25.7967 32.42 31.8067C31.2884 34.7898 29.5841 39.3581 28.63 41.959L26.8966 46.6882L30.2544 43.9032C32.102 42.3716 34.6574 40.2373 35.9348 39.1608C38.8653 36.6916 42.1168 24.8199 40.932 20.9209C39.3257 15.6404 29.6883 11.3133 22.3205 12.5643ZM34.8683 17.2592C33.328 17.4775 33.1521 17.688 34.2457 18.0085C36.1201 18.5565 39.0255 23.4873 38.5997 25.3982C38.3697 26.4345 38.6549 26.4239 39.6902 25.3551C42.4869 22.4687 39.0339 16.6708 34.8683 17.2592ZM40.9777 28.5774C40.747 29.7217 40.922 30.0089 41.4235 29.3102C41.8778 28.6773 42.0482 27.8295 41.8031 27.4272C41.5579 27.0249 41.1868 27.5422 40.9777 28.5774ZM46.088 29.3224C46.226 31.0621 53.1062 33.6777 53.4846 32.1335C53.6235 31.5666 52.6744 30.8424 51.3754 30.5241C50.0763 30.2058 48.3283 29.4713 47.4916 28.8932C46.4249 28.1546 46.0053 28.2826 46.088 29.3224ZM2.05466 19.1024C-0.366223 19.4833 1.28504 21.3433 4.81207 22.2075C7.12892 22.7752 8.22069 22.6211 8.15148 21.7373C8.04279 20.3469 4.33155 18.7428 2.05466 19.1024ZM22.4375 26.5261C20.5713 29.824 20.6675 44.027 22.5618 44.8952C23.7597 45.4444 24.7919 43.9615 27.717 37.4915C29.7278 33.0416 31.2074 29.1284 31.005 28.7964C30.8029 28.4634 30.4578 28.9211 30.2396 29.8118C30.0211 30.7035 29.4029 31.3251 28.8657 31.1935C28.3284 31.0618 28.1033 30.079 28.3654 29.0093C28.6275 27.9397 28.4317 26.964 27.9306 26.8412C27.4296 26.7185 26.5265 27.4249 25.9236 28.411C24.3589 30.9685 23.0854 30.2627 23.4269 27.0262L23.7188 24.2631L22.4375 26.5261ZM13.2797 27.3746C12.8418 28.9928 14.8606 36.0082 15.8325 36.2464C16.1743 36.3301 16.1144 35.7042 15.6994 34.8542C15.2841 34.0051 14.6585 31.648 14.3082 29.6171C13.9578 27.5861 13.4948 26.5769 13.2797 27.3746ZM39.2519 41.8835C38.8173 42.309 39.4012 43.8518 40.5488 45.3122C42.7937 48.1681 44.1933 48.9254 44.5486 47.4756C44.8976 46.051 40.1323 41.02 39.2519 41.8835ZM4.08457 36.1974C0.888233 36.912 -0.931996 38.3235 0.797823 38.7473C2.91932 39.2671 8.56878 37.9682 8.83038 36.9005C9.2197 35.3116 8.5161 35.2082 4.08457 36.1974ZM14.3368 46.7031C13.6048 47.7556 14.3037 48.2412 17.7819 49.0934C22.8004 50.3231 23.9483 49.1076 19.6605 47.1056C15.6412 45.2292 15.378 45.209 14.3368 46.7031ZM13.4054 50.7413C11.5112 51.8842 13.7387 53.2515 19.8091 54.6719C24.1463 55.6861 25.7659 55.7779 24.5997 54.9427C22.9551 53.7656 23.0088 53.6901 25.3962 53.805C26.8033 53.8725 24.8562 53.1058 21.0686 52.1005C17.2811 51.0952 13.8328 50.4843 13.4054 50.7413ZM16.0957 57.9573C16.7371 60.4399 17.7309 60.8927 20.814 60.1081C24.2781 59.2262 23.6946 57.7576 19.4683 56.7221C15.8299 55.8306 15.5705 55.9258 16.0957 57.9573Z" fill="black"/>
</svg>
