<svg width="40" height="40" viewBox="0 0 40 40" fill="none" xmlns="http://www.w3.org/2000/svg">
<path id="Vector" d="M17.7712 0.120439C10.9857 0.881823 4.92879 5.18908 2.00364 11.3237C-0.649656 16.9035 -0.671404 23.0599 1.96014 28.5962C5.40725 35.8294 12.7908 40.2998 20.7616 39.9843C29.537 39.6254 36.8553 33.8389 39.2912 25.3331C39.6174 24.1693 39.8784 22.6357 39.9654 21.3087C40.0306 20.3515 40.0197 20.2536 39.7914 19.9708C39.6174 19.7533 39.4651 19.6771 39.1715 19.6771C38.8236 19.6771 38.6496 19.8077 37.6274 20.7975C36.9967 21.4066 36.1268 22.1462 35.6918 22.429C29.3522 26.6384 20.9464 24.6914 17.0861 18.1C15.2158 14.913 14.8569 10.8777 16.0966 7.2992C16.7599 5.40662 17.7059 3.92736 19.3371 2.24144C20.2179 1.32778 20.3592 1.13199 20.3484 0.827438C20.3375 0.599023 20.2505 0.403238 20.0548 0.229208C19.7394 -0.0427151 19.3262 -0.0644689 17.7712 0.120439Z" fill="#273A7D"/>
</svg>
