<svg width="52" height="52" viewBox="0 0 52 52" fill="none" xmlns="http://www.w3.org/2000/svg">
<g id="Group">
<path id="Vector" d="M24.5267 0.693292C24.0067 1.16996 23.8333 2.20996 23.8333 4.33329C23.8333 7.49663 24.44 8.66663 26 8.66663C27.56 8.66663 28.1667 7.49663 28.1667 4.33329C28.1667 1.16996 27.56 -4.1008e-05 26 -4.1008e-05C25.5667 -4.1008e-05 24.8733 0.303292 24.5267 0.693292Z" fill="#E3CA71"/>
<path id="Vector_2" d="M7.58334 7.80001C6.50001 9.01334 7.02001 10.4 9.31668 12.5233C12.0033 14.9933 14.3 14.82 14.3 12.1767C14.3 10.92 10.4 6.93334 9.18668 6.93334C8.71001 6.93334 8.01668 7.32334 7.58334 7.80001Z" fill="#E3CA71"/>
<path id="Vector_3" d="M39.8233 9.05669C37.6567 11.18 37.1367 12.6967 38.22 13.78C39.2167 14.7767 40.7333 14.3 42.6833 12.5234C44.98 10.4 45.5 9.01336 44.4167 7.80003C43.2033 6.45669 42.0767 6.76003 39.8233 9.05669Z" fill="#E3CA71"/>
<path id="Vector_4" d="M22.4467 13.5633C17.03 15.1233 13 20.41 13 26C13 32.8467 19.1533 39 26 39C32.8467 39 39 32.8467 39 26C39 21.32 35.6633 16.12 31.46 14.2567C28.9467 13.1733 25.0033 12.87 22.4467 13.5633Z" fill="#E3CA71"/>
<path id="Vector_5" d="M0.693341 24.5267C0.303341 24.8734 7.62939e-06 25.5667 7.62939e-06 26C7.62939e-06 27.56 1.17001 28.1667 4.33334 28.1667C7.49668 28.1667 8.66667 27.56 8.66667 26C8.66667 24.44 7.49668 23.8334 4.33334 23.8334C2.21001 23.8334 1.17001 24.0067 0.693341 24.5267Z" fill="#E3CA71"/>
<path id="Vector_6" d="M44.0267 24.5267C43.6367 24.8734 43.3333 25.5667 43.3333 26C43.3333 27.56 44.5033 28.1667 47.6667 28.1667C50.83 28.1667 52 27.56 52 26C52 24.44 50.83 23.8334 47.6667 23.8334C45.5433 23.8334 44.5033 24.0067 44.0267 24.5267Z" fill="#E3CA71"/>
<path id="Vector_7" d="M9.31668 39.4767C8.23334 40.4733 7.23668 41.7733 7.10668 42.3367C6.76001 43.55 7.93001 45.0667 9.23001 45.0667C10.4867 45.0667 14.3 41.1233 14.3 39.78C14.3 37.18 11.96 37.0067 9.31668 39.4767Z" fill="#E3CA71"/>
<path id="Vector_8" d="M38.22 38.22C37.1367 39.3033 37.6567 40.82 39.8233 42.9433C42.0767 45.24 43.2033 45.5433 44.4167 44.2C45.5 42.9866 44.98 41.6 42.6833 39.4766C40.7333 37.7 39.2167 37.2233 38.22 38.22Z" fill="#E3CA71"/>
<path id="Vector_9" d="M24.5267 44.0267C24.0067 44.5033 23.8333 45.5433 23.8333 47.6667C23.8333 50.83 24.44 52 26 52C27.56 52 28.1667 50.83 28.1667 47.6667C28.1667 44.5033 27.56 43.3333 26 43.3333C25.5667 43.3333 24.8733 43.6367 24.5267 44.0267Z" fill="#E3CA71"/>
</g>
</svg>
