<?xml version="1.0" standalone="no"?>
<!DOCTYPE svg PUBLIC "-//W3C//DTD SVG 20010904//EN"
 "http://www.w3.org/TR/2001/REC-SVG-20010904/DTD/svg10.dtd">
<svg version="1.0" xmlns="http://www.w3.org/2000/svg"
 width="304.000000pt" height="82.000000pt" viewBox="0 0 304.000000 82.000000"
 preserveAspectRatio="xMidYMid meet">

<g transform="translate(0.000000,82.000000) scale(0.100000,-0.100000)"
fill="#000000" stroke="none">
<path d="M297 723 c-3 -5 -8 -28 -12 -53 -10 -64 -17 -72 -62 -76 -67 -6 -116
-27 -132 -56 -14 -25 -13 -44 18 -234 40 -241 48 -257 122 -256 24 1 76 8 114
17 39 9 110 23 159 31 100 16 160 44 176 83 13 32 70 361 70 405 0 60 -24 70
-242 110 -222 41 -205 38 -211 29z m158 -194 c66 -12 123 -24 127 -28 11 -10
-12 -132 -26 -136 -6 -3 -65 6 -131 18 l-120 22 2 49 c2 57 10 96 21 96 4 0
61 -9 127 -21z m-25 -249 c227 -41 212 -36 208 -68 -2 -21 -9 -28 -30 -30 -22
-3 -368 55 -376 62 -7 8 12 66 22 66 7 0 86 -13 176 -30z m-15 -117 c50 -9 86
-18 80 -19 -5 -2 -70 -15 -144 -29 -140 -25 -161 -23 -161 15 0 31 29 44 110
49 14 0 66 -6 115 -16z"/>
</g>
</svg>
