<svg width="60" height="52" viewBox="0 0 60 52" fill="none" xmlns="http://www.w3.org/2000/svg">
<path id="image 37 (Traced)" fill-rule="evenodd" clip-rule="evenodd" d="M40.0797 0.526625C39.2547 0.737625 30.9577 1.75263 21.6427 2.78263C3.07673 4.83463 2.17673 5.23262 0.264732 12.2406C-1.01627 16.9306 2.65573 47.7846 4.77173 50.1226C6.86573 52.4366 8.58173 52.3956 34.6787 49.4106C46.6997 48.0356 56.6797 46.9106 56.8577 46.9106C57.0357 46.9106 57.8457 45.3216 58.6567 43.3796C59.9607 40.2596 59.9557 38.8906 58.6187 31.6296C57.7857 27.1096 56.4117 18.7166 55.5637 12.9786C54.7167 7.24162 53.5307 1.95462 52.9287 1.22862C51.9097 0.000624895 43.8577 -0.440375 40.0797 0.526625ZM52.0447 2.84462C53.1827 4.97163 53.4647 10.9106 52.4287 10.9106C51.5617 10.9106 21.4377 14.6556 12.5847 15.8646C8.73673 16.3896 5.22073 16.4516 4.76973 16.0006C4.31973 15.5506 4.09273 13.2086 4.26573 10.7966L4.57973 6.41062L10.5797 5.61863C23.8777 3.86363 46.7137 1.11263 48.7947 1.01462C50.0397 0.956625 51.4627 1.75762 52.0447 2.84462ZM25.6697 7.53762C24.9687 9.36263 26.6647 11.9106 28.5797 11.9106C30.4947 11.9106 32.1907 9.36263 31.4897 7.53762C30.6807 5.42863 26.4787 5.42863 25.6697 7.53762ZM16.4417 8.41062C15.5657 10.6916 16.7907 12.9106 18.9257 12.9106C21.8127 12.9106 23.6447 10.2966 22.0797 8.41062C21.3947 7.58562 19.9757 6.91062 18.9257 6.91062C17.8757 6.91062 16.7577 7.58562 16.4417 8.41062ZM30.0797 8.96962C30.0797 9.48762 29.4047 9.91062 28.5797 9.91062C27.0337 9.91062 26.5927 8.73063 27.7187 7.60463C28.5177 6.80562 30.0797 7.70862 30.0797 8.96962ZM7.46873 9.34062C6.47273 11.9356 7.86773 14.0796 10.3257 13.7306C13.5297 13.2756 13.5297 8.54562 10.3257 8.09062C8.97273 7.89862 7.82973 8.39862 7.46873 9.34062ZM21.0797 9.96962C21.0797 10.4876 20.4047 10.9106 19.5797 10.9106C18.0337 10.9106 17.5927 9.73063 18.7187 8.60462C19.5177 7.80562 21.0797 8.70862 21.0797 9.96962ZM11.5147 11.0156C10.8167 12.1446 8.07973 12.1936 8.07973 11.0776C8.07973 9.66962 9.20573 9.02162 10.6717 9.58462C11.4397 9.87862 11.8197 10.5226 11.5147 11.0156ZM54.0767 13.6606C54.0747 14.0736 55.0167 19.9376 56.1707 26.6936C57.3247 33.4496 58.0487 39.5486 57.7807 40.2476C57.4707 41.0556 53.3517 41.9476 46.4367 42.7026C40.4657 43.3546 29.7417 44.5576 22.6067 45.3766C15.4357 46.1986 9.25173 46.4826 8.77973 46.0106C7.99573 45.2266 5.10973 25.1516 5.08873 20.3346C5.08073 18.3846 6.31273 18.1026 25.3297 15.7006C46.9787 12.9666 54.0817 12.4626 54.0767 13.6606ZM4.44773 31.1596C4.69173 32.1216 4.53573 33.1286 4.10073 33.3976C3.66573 33.6666 2.98873 30.8856 2.59573 27.2186C2.20373 23.5506 1.68873 19.4846 1.45273 18.1816C1.21573 16.8776 1.37073 15.2716 1.79573 14.6116C2.22073 13.9506 2.89173 17.0106 3.28673 21.4106C3.68073 25.8106 4.20373 30.1976 4.44773 31.1596ZM40.4257 18.4506C40.1007 19.2976 40.3567 22.7846 40.9947 26.2006C43.3787 38.9626 42.8307 37.9106 47.0997 37.9106C49.2237 37.9106 51.1567 37.5736 51.3947 37.1606C51.6327 36.7476 51.1247 32.0226 50.2637 26.6606L48.6997 16.9106H44.8587C42.3217 16.9106 40.8157 17.4336 40.4257 18.4506ZM47.5337 20.1606C48.2617 23.4856 50.0797 34.1506 50.0797 35.0946C50.0797 35.5436 48.7757 35.9106 47.1827 35.9106C44.4067 35.9106 44.2387 35.6436 43.1827 29.5786C41.7627 21.4266 41.7927 19.1936 43.3297 18.5726C45.8977 17.5366 47.0557 17.9736 47.5337 20.1606ZM29.2237 24.6416L25.8667 25.0536L26.5477 30.7316C27.7127 40.4526 27.9497 40.9716 30.9357 40.3096C37.2567 38.9106 37.2937 38.8806 36.7387 35.5636C36.4487 33.8296 35.9177 30.4976 35.5577 28.1606C35.1967 25.8116 34.3837 23.9826 33.7417 24.0706C33.1027 24.1586 31.0697 24.4156 29.2237 24.6416ZM34.4447 31.2506C35.3667 36.2996 34.9647 37.2696 31.5207 38.3046C29.6697 38.8616 29.3637 38.3236 28.4747 32.9516C27.6327 27.8566 27.7147 26.9156 29.0337 26.5506C32.5367 25.5796 33.5727 26.4786 34.4447 31.2506ZM14.7997 33.6056C13.3367 33.9866 13.1367 34.7236 13.6807 37.7396C14.5717 42.6816 14.3827 42.5296 19.0947 42.0806L23.2597 41.6836L22.5787 38.0546C22.2047 36.0586 21.6877 34.0846 21.4297 33.6686C20.9337 32.8656 17.7607 32.8356 14.7997 33.6056ZM20.5797 37.8966C20.5797 39.5356 19.9387 40.5066 18.6997 40.7456C16.6297 41.1436 15.1187 39.4036 15.0947 36.5946C15.0837 35.1996 15.7187 34.8516 17.8297 35.0946C20.0077 35.3446 20.5797 35.9276 20.5797 37.8966ZM6.00973 44.1256C6.08473 47.0146 8.24673 48.6576 11.5797 48.3566C12.6797 48.2566 17.1617 47.8586 21.5387 47.4726C25.9167 47.0856 29.9127 46.5136 30.4187 46.2006C30.9247 45.8886 31.1337 46.2476 30.8827 47.0006C30.6317 47.7536 29.1117 48.4326 27.5037 48.5096C25.0157 48.6296 18.6957 49.3076 9.37473 50.4536C6.30873 50.8306 5.29873 49.2206 4.62973 42.8856C4.22773 39.0806 4.33973 38.0206 4.99573 39.4106C5.51473 40.5106 5.97073 42.6326 6.00973 44.1256ZM56.2897 44.1006C54.9197 45.4706 54.8627 45.4816 44.4707 46.3776C40.1757 46.7486 36.2467 47.3076 35.7407 47.6206C35.2347 47.9326 35.0217 47.5846 35.2677 46.8466C35.5177 46.0976 37.4527 45.3836 39.6477 45.2306C41.8097 45.0806 46.2797 44.5526 49.5797 44.0566C52.8797 43.5606 56.0077 43.0996 56.5297 43.0326C57.0517 42.9656 56.9447 43.4456 56.2897 44.1006ZM34.0797 46.9106C34.0797 47.4606 33.6297 47.9106 33.0797 47.9106C32.5297 47.9106 32.0797 47.4606 32.0797 46.9106C32.0797 46.3606 32.5297 45.9106 33.0797 45.9106C33.6297 45.9106 34.0797 46.3606 34.0797 46.9106Z" fill="black"/>
</svg>
